#define clown_width 81
#define clown_height 52
static unsigned char clown_bits[] = {
 0x00,0x00,0xe0,0xff,0xff,0x00,0x00,0x00,0x00,0x00,0x00,0x00,0x00,0x1c,0x00,
 0x80,0x3f,0x00,0x00,0x00,0x00,0x00,0x00,0xc0,0x03,0x00,0x00,0xc0,0x01,0x00,
 0x00,0x00,0x00,0x00,0x78,0x00,0x00,0x00,0x00,0x1e,0x3f,0x3f,0x00,0x00,0x00,
 0x0f,0x00,0x00,0x00,0x00,0xf0,0xc1,0xc0,0x01,0x00,0xc0,0x03,0x00,0x00,0x00,
 0x00,0xc0,0x20,0x00,0x03,0x00,0x60,0x00,0x00,0x00,0x00,0x00,0x00,0x23,0xc0,
 0x0f,0x00,0x30,0x00,0xe0,0x01,0x00,0x00,0x00,0x4c,0x30,0x30,0x00,0x18,0x00,
 0x1f,0x3e,0x00,0x00,0x00,0x88,0x08,0x46,0x00,0x04,0x03,0x00,0xe0,0x61,0x00,
 0x00,0x70,0x84,0x89,0x00,0xc4,0x00,0x00,0x00,0x1e,0x00,0x00,0x3f,0x84,0x80,
 0x00,0x32,0x00,0xf8,0x01,0x00,0x00,0xc0,0xc0,0x04,0x41,0x00,0x0e,0x00,0x80,
 0x1f,0x00,0x00,0x30,0x00,0x19,0x3e,0x00,0x82,0x01,0x00,0x70,0x00,0x00,0x08,
 0x38,0x62,0x18,0x00,0xe1,0x00,0x00,0x00,0x00,0x00,0x3f,0x04,0xf2,0x61,0x00,
 0x31,0x00,0x80,0x0f,0x30,0xc0,0xc0,0x85,0x0d,0x86,0x00,0x0e,0x00,0x40,0x30,
 0x0c,0x20,0x00,0x76,0x02,0x08,0x01,0x04,0x00,0x20,0x6e,0xc2,0x10,0x3e,0x0c,
 0x71,0x08,0x01,0xc8,0x03,0x20,0x5f,0x3b,0x08,0x41,0x18,0x09,0x88,0x00,0x30,
 0x04,0x40,0x03,0x07,0x88,0x9c,0x30,0x11,0x66,0x00,0x20,0x0e,0xc0,0x00,0x70,
 0x10,0xbf,0x30,0xe2,0x11,0x00,0x20,0x0f,0x20,0x00,0x00,0x04,0x5c,0x30,0x0c,
 0x0e,0x00,0x40,0x02,0x10,0x00,0x00,0x10,0x38,0x18,0xfc,0x10,0x00,0x80,0x7f,
 0x10,0x00,0x00,0x44,0x17,0x0c,0x03,0x21,0x00,0xf0,0xff,0x10,0x00,0x00,0x10,
 0x02,0xc7,0x30,0x22,0x00,0xfc,0xff,0x61,0x00,0x00,0x44,0x80,0x23,0x08,0x31,
 0x00,0x86,0xff,0x81,0x03,0x00,0x11,0xc1,0xff,0xf3,0x10,0x00,0xc6,0xff,0x01,
 0x3e,0x00,0x44,0xe4,0x07,0x02,0x0c,0x00,0xfe,0xff,0x00,0xe2,0x00,0x11,0x7f,
 0x00,0x02,0x07,0x00,0xf8,0x7f,0x00,0x21,0x41,0x44,0x02,0x20,0xdf,0x01,0x00,
 0xe0,0x0f,0x80,0x11,0x11,0x11,0x03,0x11,0x03,0x00,0x00,0x00,0x01,0xe0,0x18,
 0x45,0x44,0x02,0x91,0x00,0x00,0x00,0x00,0x02,0x1e,0x86,0x10,0x11,0x83,0x48,
 0x00,0x00,0x00,0x00,0xfc,0x81,0x61,0x44,0x44,0x41,0x24,0x00,0x00,0x00,0x00,
 0x04,0x78,0x18,0x11,0x91,0x20,0x22,0x00,0x00,0x00,0x00,0xf8,0x07,0x46,0x44,
 0xc4,0x20,0x12,0x00,0x00,0x00,0x00,0x10,0xf0,0x11,0x11,0x71,0x10,0x09,0x00,
 0x00,0x00,0x00,0xc0,0x4f,0x44,0x44,0xfc,0x90,0x08,0x00,0x00,0x00,0x00,0x00,
 0x12,0x11,0x11,0xff,0x91,0x08,0x00,0x00,0x00,0x00,0x1f,0x45,0x44,0xc4,0x03,
 0x49,0x04,0x00,0x00,0x00,0x80,0xf0,0x11,0x11,0xf1,0x00,0x4a,0x03,0x00,0x00,
 0x00,0x80,0xc0,0x47,0x84,0xff,0x00,0xca,0x00,0x00,0x00,0x00,0x00,0xe1,0x1f,
 0xfd,0xcb,0x01,0x2a,0x00,0x00,0x00,0x00,0x00,0xfe,0xef,0xbf,0x85,0x87,0x1f,
 0x00,0x00,0x00,0x00,0x00,0x1e,0xfc,0x86,0x05,0xff,0x03,0x00,0x00,0x00,0x00,
 0x00,0x04,0x70,0x83,0x85,0xff,0x01,0x00,0x00,0x00,0x00,0x00,0x08,0x70,0x03,
 0xeb,0xc3,0x00,0x00,0x00,0x00,0x00,0x00,0x10,0xf0,0x0e,0xfe,0x80,0x00,0x00,
 0x00,0x00,0x00,0x00,0x20,0xf8,0xfb,0x71,0x40,0x00,0x00,0x00,0x00,0x00,0x00,
 0x80,0xfc,0x01,0x60,0x20,0x00,0x00,0x00,0x00,0x00,0x00,0x00,0xff,0x00,0xc0,
 0x08,0x00,0x00,0x00,0x00,0x00,0x00,0x00,0x3c,0x00,0x00,0x07,0x00,0x00,0x00,
 0x00,0x00};
