#define small_width 16
#define small_height 16
static unsigned char small_bits[] = {
   0xc0, 0x01, 0x30, 0x06, 0x0c, 0x18, 0x1c, 0x10, 0x3a, 0x20, 0x72, 0x20,
   0x61, 0x40, 0xc1, 0x40, 0xc1, 0x41, 0x82, 0x21, 0x02, 0x23, 0x04, 0x17,
   0x0c, 0x1e, 0x30, 0x06, 0xc0, 0x01, 0x00, 0x00};
