/* XPM */
/* $XConsortium: bee.xpm /main/4 1995/07/18 16:04:36 drk $ */
static char * bee.xpm [] = {
"44 39 5 1",
"  c none",
". c #222222222222",
"X c #D2D2B4B48C8C",
"o c #B0B0C4C4DEDE",
"O c #FFFFFFFF0000",
"                    .    .     ....         ",
"                  .    ..X..  ..XX...       ",
"                      ..XXX. .XXXXXXX..     ",
"                 .   ..XXXXX..XXXXXXXX..    ",
"                    ..XX.XX..XXXXXXXXXX..   ",
"                .   .XX.XXX.XXXXXXXX.XXX.  .",
"                   ..XX.XX.XXXXXXX..XXXX.   ",
"               .   .XXX.X..XXXXXX.XXXXXX.   ",
"                   .XX.XX.XXXXXX.XXXXXXX.  .",
"              .    .XX.X..XXXXXX.XXXXXXX.   ",
"  .               .XX.XX.XXXXX..XXXXXXX..   ",
"   ..         .   .XX.X.XXXXX.XXXXXXXXX.   .",
"     .            .X.XX.XXX..XXXXXXXXXX.    ",
"..    ..      .   .X.X.XXX.XXXXXXXXXXX.     ",
"  ...   .         .XXX.X..XXXXXXXXXX..   .  ",
"     .....        .XX..XXXXXXXXXX...        ",
"       ..o...     .XX.XXXXXXX.....     .    ",
"     ..oooooo.     ..........        .      ",
"    .ooooooooo................     .        ",
"   .oo.oooooooo......OOO....OO..            ",
"  .oo...ooooooo.O....OOO.....OO...          ",
" .ooo...ooooooo.O.....OOO....OO.....        ",
" .oooo.oooooooo.O.....OOO.....OO...O..      ",
".ooooooooo.oooo.O.....OOO.....OO...OO..     ",
".oooooooo.ooooo.O.....OOO.....OO....OO..    ",
" .oooooo.oooooo.O.....OOO.....OO....OO...   ",
"  ......oooooo.OO.....OOO.....OO....OO....  ",
"    ..ooooooo.OO......OOO.....OO....OO...   ",
"      .......OO.......OOO....OO.....OO..    ",
"            ..........OOO....OO....OO..     ",
"            ..........OOO....OO......       ",
"             ........OOO.....O.....         ",
"              .......OOO....OO.....         ",
"              . ....OOO........             ",
"              .   .........   .             ",
"               .       ..     ..            ",
"                .       ..      ...         ",
"                 ...      ..       ..       ",
"                    ..      .....   ....    "};
