/* XPM */
/* $XConsortium: bomb.xpm /main/4 1995/07/18 16:04:43 drk $ */
static char * bomb.xpm [] = {
"36 35 7 1",
"  c none s background",
". c #0F0FF0F00000",
"X c #FFFFFFFF0000",
"o c #FFFF00000000",
"O c #D2D2B4B48C8C",
"+ c #222222222222",
"@ c #FFFFFFFFFFFF",
"                                    ",
"                    .       .       ",
"                           .        ",
"                   X . o  .XX       ",
"                .o XX    .XX        ",
"                  .oX .X  X oo      ",
"                    . XX Xoo        ",
"           OOOOOOO     XXo . . .    ",
"          OOO   OOO  .XXX           ",
"         OO       OO. oo oX         ",
"         O           ooX  o.        ",
"         O          o o oooo. X     ",
"      +++++++      .o oXX ooX.      ",
"      +++++++     .  o  .  o  .     ",
"    +++++++++++                     ",
"  +++++++++++++++       .           ",
"  +++++++++++++++                   ",
" +++++++++++++++++                  ",
" +++++++++++++++++                  ",
"++++++++++++++@++++                 ",
"+++++++++++++++++++                 ",
"+++++++++++++++@+++                 ",
"+++++++++++++++@+++                 ",
"+++++++++++++++@+++                 ",
"+++++++++++++++++++                 ",
"++++++++++++++@++++                 ",
" +++++++++++++++++                  ",
" +++++++++++@+++++                  ",
"  +++++++++++++++                   ",
"  +++++++++++++++                   ",
"    +++++++++++                     ",
"      +++++++                       ",
"                                    ",
"                                    ",
"                                    "};
