/* XPM */
/* $XConsortium: cherry.xpm /main/4 1995/07/18 16:04:49 drk $ */
static char * cherry.xpm [] = {
"36 38 4 1",
"  c #64649595EDED",
". c #0F0FF0F00000",
"X c #787867675050",
"o c #FFFF00000000",
"                      ..........    ",
"                   ......XX....     ",
"                  ....XXXX....      ",
"                 ...XXX.......      ",
"                ............        ",
"               X  ........          ",
"              XXX   ....            ",
"         ......XXX                  ",
"        .......XXXX                 ",
"       ...XX.. X XXX                ",
"      ...XX..  X XXXX               ",
"    ....X....  X  XXX               ",
"     ..X....  XX  XXXXX             ",
"      .....   XX  XXXXX             ",
"              X   XX XX             ",
"             XX   X   XX            ",
"            XX    XX   XX           ",
"           XX     X    XXX          ",
"          XX      XX     X          ",
"    ooooo X       XX     XX         ",
"   ooooooo        X       Xoooo     ",
"  ooooooooo       XX      oooooo    ",
" ooooooooooo      XX     oooooooo   ",
" ooooooooooo      XX    oooooooooo  ",
" ooooooooooo    ooooo   oooooooooo  ",
" ooooooooooo   ooooooo  oooooooooo  ",
"  ooooooooo   ooooooooo oooooooooo  ",
"   ooooooo    ooooooooo  oooooooo   ",
"    ooooo     ooooooooo   oooooo    ",
"              ooooooooo    oooo     ",
"              ooooooooo             ",
"               ooooooo              ",
"                ooooo               ",
"                                    ",
"                                    ",
"                                    ",
"                                    ",
"                                    "};
