/* XPM */
/* $XConsortium: da.xpm /main/4 1995/07/18 16:04:56 drk $ */
static char * da [] = {
"29 35 5 1",
" 	c #333333333333",
".	c #FFFFFFFFFFFF s background",
"X	c #5A5AF4F44C4C",
"o	c #B2B222222222",
"O	c #FFFF7F7F5050",
"                   ..........",
" XXXXXXXXXXXXXXXXX  .........",
" XX   X XXXXXXXXXX . ........",
" XX   X XXXXXXXXXX .. .......",
" XX   X XXXXXXXXXX ... ......",
" XX   X XXXXXXXXXX .... .....",
" XX   X XXXXXXXXXX       ....",
" XX   X XXXXXXXXXXXXXXXX ....",
" XX   X XXXXXXXXXXXXXXXX ....",
" XX   X XXXXXXXXXXXXXXXX ....",
" XX     XXXXXXXXXXXXXXXX ....",
" XX ... XXXXXXXXXXXXXXXX ....",
" XX ... XXXXXXXXXXXXXXXX ....",
" XX ... XXXXXXXXXXXXXXXX ....",
" XX ... XXXXXXXXXXXXXXXX ....",
" XX ... XXXXXXXXXXXXXXXX ....",
" XXX   XXXXXXXXXXXXXXXXX ....",
" XX     XXXXXXXXXXXXXXXX ....",
" XX   o XXXXXXXXXXXXXXXX ....",
" XX     oXXXXXXXXXXXXXXX ....",
" XX      XXXXXXXXXXXXXXX ....",
" XX o    XXXXXXXXXXXXXXX ....",
" XX    ooXXXXXXXXXXXXXXX ....",
" XXooo ooXXXX XOOOOOOOOX ....",
" XXoo  ooXXXXXXXO.OOOOOX ....",
" XXXooooXXXXXXOOOOOOOOOX ....",
" XXXooooXXXXOOOOOOOOOOOX ....",
" XXXXoo XXXXXXOOOOOOOOOX ....",
" XXXXXXo XXOOOOOOOOOOOOX ....",
" XXXXXXXXXXXXXXXXXXXXXXX ....",
" XXXXXXXXXXXXXXXXXXXXXXX ....",
"                         ....",
".............................",
".............................",
"............................."};
