/* XPM */
/* $XConsortium: k7.xpm /main/4 1995/07/18 16:05:09 drk $ */
static char * k7 [] = {
"36 35 5 1",
" 	c #FFFFFFFFFFFF s background",
".	c #222222222222",
"X	c #4040E0E0D0D0 s foreground",
"o	c green",
"O	c #CCCCCCCC0000",
"                                    ",
"                                    ",
"                                    ",
"                                    ",
"                                    ",
"                                    ",
"                                    ",
" ..............................     ",
".XXXXXXXXXXXXXXXXXXXXXXXXXXXXXX.    ",
".XXXXXXXXXXXXXXXXXXXXXXXXXXXXXX.    ",
".XXX........................XXX.    ",
".XX. . . . . . . . . . . . ..XX.    ",
".X. . . . . . . . . . . . . ..X.    ",
".X.. . ................. . . .X.    ",
".X. . ..oooooooooooooooo. . ..X.    ",
".X.. ..oo..oo......oo..oo. . .X.    ",
".X. . .o....o.    .o....o.. ..X.    ",
".X.. ..o.. .o.    .o.. .o. . .X.    ",
".X. . .oo..oo......oo..oo.. ..X.    ",
".X.. . .oooooooooooooooo.. . .X.    ",
".X. . . ................. . ..X.    ",
".X.. . . . . . . . . . . . . .X.    ",
".X. . . . . . . . . . . . . ..X.    ",
".X............................X.    ",
".XXXXXXXXXXXXXXXXXXXXXXXXXXXXXX.    ",
".XXXXX.....................XXXX.    ",
".XXXX.OOOOOOOOOOOOOOOOOOOO..XXX.    ",
".XXX.OOO.OO..OOOOOO..OO.OOO..XX.    ",
".XXX.OOO.OO..OOOOOO..OO.OOO..XX.    ",
".XXX.OOOOOOOOOOOOOOOOOOOOOO..XX.    ",
".... .....O..O....O.. ..... ....    ",
" .... .................... ....     ",
"                                    ",
"                                    ",
"                                    "};
