/* XPM */
/* $XConsortium: labir.xpm /main/4 1995/07/18 16:05:15 drk $ */
static char * labir [] = {
"34 35 5 1",
" 	c #FFFFFFFFFFFF s background",
".	c #FFFF7F7F5050",
"X	c #000000000000",
"o	c #AFAFEEEEEEEE",
"O	c #FFFFFFFF0000",
"                                  ",
"             ..   ..              ",
"           ..... .  .             ",
"          .......                 ",
"                                  ",
"       XXXXXXXXXXXXXXXX           ",
"      XoooooXoooooXooooX          ",
"      XXXXXoXXXXoXXXXXoX          ",
"     XoooooooooXooooooooX         ",
"     XoXXXXXXXXXXXXXoXXXX         ",
"    XooooooooooooooooooooX        ",
"    XXXooXXXXXXXooXXXXXooX        ",
"   XoooooXoooooXooooooXoooX       ",
"   XooXXXoooXooXXXXXoooXXXX       ",
"  XoooooooooXooooooooooooooX      ",
"  XXXXXXXXXXXXXXXXXXXXXXXooX      ",
" XooooooooooooooooooooooooooX     ",
" XXXooooooooooooooooXoooXXXXX     ",
"XooooooooooooooooooooXoooooooX    ",
"XXXXXXXXXXXXXoooXXXXXXXXXXXXXX    ",
"XoooooooooooXoooXooooooooooooX    ",
"XoooooooooooX   XooooooooooooX    ",
"XoooooooooooX   XoooooooXXoooX    ",
"XoooooooooooX   XoooooXXOOXooX    ",
"XXXXXXXXXXXXX   XXXXXXOOOOXXXX    ",
"                   XOOXXOOX       ",
"                   XOXOOXXX       ",
"                   XOOOOOOX       ",
"                   XOOOXOOX       ",
"                    XXOOOOX       ",
"                      XXOX        ",
"                        X         ",
"                                  ",
"                                  ",
"                                  "};
