/* XPM */
/* $XConsortium: main.xpm /main/4 1995/07/18 16:05:21 drk $ */
static char * main [] = {
"22 17 3 1",
" 	c #FFFFFFFFFFFF",
".	c #000000000000",
"X	c #FFFFCACAB6B6",
" .................... ",
".                    .",
".       ...          .",
".     ..XX.          .",
".    .XXX.           .",
".   .XXX...          .",
".  ..XXX..........   .",
".  .XXX..XXXXXXXXX.  .",
".  .XX.X..........   .",
".  ...XX.XXXXX.      .",
".  .XXXX......       .",
".  .XXXX.XXXX.       .",
".  ..XXX.....    ..  .",
".   ........     ..  .",
".                    .",
".                    .",
" .................... "};
