/* XPM */
/* $XConsortium: pile.xpm /main/4 1995/07/18 16:05:28 drk $ */
static char * pile [] = {
"24 35 6 1",
" 	c #FFFFFFFFFFFF s background",
".	c #000000000000",
"X	c #D3D3D3D3D3D3",
"o	c #CCCCCCCC0000",
"O	c #FFFFFFFF0000",
"+	c #6666CDCDAAAA",
"         .              ",
"        .X.             ",
"       .XXX.            ",
"      .XXXXX.           ",
"     .XXXXXXX.          ",
"    .XXXX.XXXX.         ",
"   .XXXXX..XXXX.        ",
"  .XXXXXX.X.XXXX.       ",
" .XXXXXXX.XX.XXXX.      ",
".XXXXXXXX.X.X.XXXX.     ",
" .XXXXXXX..XXX.XXXX.    ",
"  .XXXXXX.XXXXXXXX.     ",
" .o.XXXXX.XXXXXXX.      ",
".ooo.XXXX.XXXXXX.o.     ",
" .ooo.XXX.XXXXX.ooo.    ",
"  .ooo.XXXXXXX.ooo.     ",
" .O.ooo.XXXXX.ooo.      ",
".OOO.ooo.XXX.ooo.O.     ",
" .OOO.ooo.X.ooo.OOO.    ",
"  .OOO.ooo.ooo.OOO.     ",
" .+.OOO.ooooo.OOO.      ",
".+++.OOO.ooo.OOO.+.     ",
" .+++.OOO.o.OOO.+++.    ",
"  .+++.OOO.OOO.+++.     ",
"   .+++.OOOOO.+++.      ",
"    .+++.OOO.+++.       ",
"     .+++.O.+++.        ",
"      .+++.+++.         ",
"       .+++++.          ",
"        .+++.           ",
"         .+.            ",
"          .             ",
"                        ",
"                        ",
"                        "};
