/* XPM */
/* $XConsortium: prev.xpm /main/4 1995/07/18 16:05:34 drk $ */
static char * prev.xpm [] = {
"52 63 7 1",
"  c none s background",
". c #000000000000",
"X c #0F0FFFFFF0F0",
"o c #CCCC32323232",
"O c #FFFFFFFF0000",
"+ c #FFFFFFFFFFFF",
"@ c #545454545454",
"                                   ..               ",
"                                 ....               ",
"                               .......              ",
"                             .........              ",
"                           ............             ",
"                         .....XXX......             ",
"                       .....XXXXXX......            ",
"                     .....XXXXXXXXX.....            ",
"                   .....XXXXX...XXX......           ",
"                 ......XXXXX....XXX......           ",
"               .........XXX......XX.......          ",
"             ...........XXXX....XXX.......          ",
"           ..............XXX...XXXXX.......         ",
"         .....ooooo......XXXXXXXXXXXXX.....         ",
"       .....oooooooo......XXXXXXXXXXXXX.....        ",
"     .....ooooooooooo.....XXXX.....XXXXX....        ",
"     ....ooooo...oooo......XXX.......XXX.....       ",
"      ..ooooo....oooo......XXXX.......X......       ",
"    . ...ooo......ooo.......XXX............O..      ",
"    .  ..oooo....oooo.......XXXX..........OOO.      ",
"    .. ...ooo...oooo.........XXX..........OOO..     ",
"   ...  ..oooooooooo.........XXX..........OOO..     ",
"   .... ...ooooooo........................OOO...    ",
"   ....  ..oooo...........................OOO...    ",
"  ...... ...oooo................O.........OOO....   ",
"  ......  ..oooo...............OOOO.......OOO....   ",
"  ....... ...ooo...............OOOOO......OOO.....  ",
" ........  ..oooo...............OOOOO.....OOO.....  ",
" ......... ...oooo.....++++++.....OOOO....OOO...... ",
" .........  ..oooo...++++++++++....OOOOO..OOO...... ",
"........... ....o...++++....++++....OOOOOOOOO.......",
"...........  .......++........++......OOOOOOO.......",
" ........... ......+++.......++++......OOOOOO.....  ",
" ...........  .....++......++++..........OOOO...   .",
"  ........... .....++....++++.............O...   ...",
"  ...........  ....++..++++....++...........   .....",
"   ........... ....++++++......++.........   ...... ",
"   ...........  ...++++.......+++.......   ........ ",
"    ........... ....++........++......   .......... ",
"    ...........  ...++++....++++....   ...........  ",
"     ........... ....++++++++++...   .............  ",
"     ...........  .....++++++....  ...............  ",
"      ........... ............@@@................   ",
"      ...........  .........@@@..................   ",
"       ........... .......@@@....................   ",
"       ...........  ....@@@.....................    ",
"        ........... ..@@@.......................    ",
"        ...........    .........................    ",
"         ........... ..........................     ",
"         ........... ........................       ",
"          .........  ......................         ",
"          ......... .....................           ",
"           ........ ...................             ",
"           .......  .................               ",
"            ...... ................                 ",
"            ...... ..............                   ",
"             ....  ............                     ",
"             .... ...........                       ",
"              ... .........                         ",
"              ..  .......                           ",
"               . ......                             ",
"               . ....                               ",
"                 ..                                 "};
