/* XPM */
/* $XConsortium: spir.xpm /main/4 1995/07/18 16:05:41 drk $ */
static char * spir [] = {
"28 21 5 1",
" 	c #000000000000",
".	c #FFFFFFFFFFFF s background",
"X	c #222222222222",
"o	c #ADADD8D8E6E6",
"O	c #D3D3D3D3D3D3",
" .......Xoooooo   .....   oo",
"  ......Xooooo   .......   o",
"  ......Xoooo   .........   ",
"  ......Xoooo   .........   ",
"    ....Xoooo    X.......   ",
"      ..Xoo    XXOOO.....   ",
"..      X    XOOOO  .....   ",
"..      X  OOOO O ......   o",
"..      XOOOOOO   .....   oo",
"....   OOOOO             ooo",
"....  OOOOO  oo         oooo",
"...  OOOO   oooooo     ooooo",
"..  OOOO  oooooooooooooooooo",
"..  OOO Xooooooooooooooooooo",
".  O   .Xooooooooooooooooooo",
".    ...Xooooooooooooooooooo",
"    ....Xooooooooooooooooooo",
"   .....Xooooooooooooooooooo",
"   .....Xooooooooo     ooooo",
"  ......Xoooooooo       oooo",
" .......Xooooooo         ooo"};
