/* XPM */
/* $XConsortium: stack.xpm /main/4 1995/07/18 16:05:47 drk $ */
static char * stack [] = {
"29 35 6 1",
" 	c #222222222222",
".	c #FFFFFFFFFFFF s background",
"X	c #EEEEEEEEEEEE",
"o	c #61618787D9D9",
"O	c #FFFF7F7F5050",
"+	c #FFFFFFFF0000",
"                   ..........",
" XXXXXXXXXXXXXXXXX  .........",
" XXXXXXXXXXXXXXXXX . ........",
" XXXXXXXXXXXXXXXXX .. .......",
" XXXXXXXXXXXXXXXXX ... ......",
" XXXXXXXXXXXXXXXXX .... .....",
" XXXXXXXXXXXXXXXXX       ....",
" XXoooooooooooooXXXXXXXX ....",
" XXoOOOOOOOOOOOoXXXXXXXX ....",
" XXoooooooooooooXXXXXXXX ....",
" XXo+++++++++++oooXXXXXX ....",
" XXo+++++++++++o+oXXXXXX ....",
" XXo+++++++++++oooXXXXXX ....",
" XXo+++++++++++oOoooXXXX ....",
" XXo+++++++++++oOoOoXXXX ....",
" XXo+++++++++++oOoooXXXX ....",
" XXoooooooooooooOo+oooXX ....",
" XXXXoOOOOOOOOOOOo+o+oXX ....",
" XXXXoOOOOOOOOOOOo+oooXX ....",
" XXXXooooooooooooo+oOoXX ....",
" XXXXXXo+++++++++++oOoXX ....",
" XXXXXXo+++++++++++oOoXX ....",
" XXXXXXoooooooooooooOoXX ....",
" XXXXXXXXoOOOOOOOOOOOoXX ....",
" XXXXXXXXoOOOOOOOOOOOoXX ....",
" XXXXXXXXoooooooooooooXX ....",
" XXXXXXXXXXXXXXXXXXXXXXX ....",
" XXXXXXXXXXXXXXXXXXXXXXX ....",
" XXXXXXXXXXXXXXXXXXXXXXX ....",
" XXXXXXXXXXXXXXXXXXXXXXX ....",
" XXXXXXXXXXXXXXXXXXXXXXX ....",
"                         ....",
".............................",
".............................",
"............................."};
