/* XPM */
/* $XConsortium: text.xpm /main/4 1995/07/18 16:05:53 drk $ */
static char * text [] = {
"29 35 8 1",
" 	c #444444444444",
".	c #B4B4EDEDEBEB s background",
"X	c #FFFFFFFFFFFF",
"o	c #B2B222222222",
"O	c #FFFFFFFF0000",
"+	c #6666CDCDAAAA",
"@	c #5A5AF4F44C4C",
"#	c #FFFF7F7F5050",
"                   ..........",
" XXXXXXXXXXXXXXXXX  .........",
" XXXXXXXXXXXXXXXXX X ........",
" XXXXXXXXXXXXXXXXX XX .......",
" XXXooXXXXXXXXXXXX XXX ......",
" XXoooOOO    XX    XXXX .....",
" XXXXXXXXXXXXXXXXX       ....",
" XX OOX++++     XXXXXXXX ....",
" XXXXXXXXXXXXXXXXXXXXXXX ....",
" XX     X @@@@ X    XXXX ....",
" XXXXXXXXXXXXXXoXoXXXXXX ....",
" XX   X   X ### oo XXXXX ....",
" XXXXXXXXXXXXXXXXXXXXXXX ....",
" XXXXXXXXXXXXXXXXXXXXXXX ....",
" XXXX +++X  OOOOO   XXXX ....",
" XXX@@XXXXXXXXXXXXXXXXXX ....",
" XX @ @@    +++  X  XXXX ....",
" XXXXXXXXXXXXXXXXXXXXXXX ....",
" XX  X OOOX    X    XXXX ....",
" XXXXXXXXOXXXoXoXXXXXXXX ....",
" XX    X   ##o##  XXXXXX ....",
" XXXXXXXXXXXXXXXXXXXXXXX ....",
" XXXXXXX+XXXXXXXXXXXXXXX ....",
" XXXX  + ++  X@@@@  XXXX ....",
" XXXXXXXXXXXXXXXXXXXXXXX ....",
" XX    X   X  ####  XXXX ....",
" XXXXXXXXoXXXXXXXXXXXXXX ....",
" XX   ####  X@@@ X  XXXX ....",
" XXXXXXXXXXXXXXXXXXXXXXX ....",
" XXXXXXXXXXXXXXXXXXXXXXX ....",
" XXXXXXXXXXXXXXXXXXXXXXX ....",
"                         ....",
".............................",
".............................",
"............................."};
